Coordinates
version=1
nRows=21
nColumns=12
inDegrees=yes

Units are S.I. units (second, meters, Newtons, ...)
Angles are in degrees

endheader
time	SC_y	SC_z	SC_x	AC_y	AC_z	AC_x	GH_y	GH_z	GH_yy	EL_x	PS_y
       0.0              -49.59          36.53          37.66          67.27         -2.104          4.929          137.0          31.84          90.89          56.39          7.407
   0.04703              -49.59          36.53          37.67          67.27         -2.105          4.926          137.0          31.84          90.89           56.4          7.429
   0.09406              -49.58          36.53          37.67          67.27         -2.107          4.923          137.0          31.83          90.88          56.41          7.452
    0.1411              -49.58          36.52          37.67          67.27         -2.108          4.919          137.0          31.83          90.88          56.42          7.476
    0.1881              -49.58          36.52          37.68          67.27         -2.109          4.915          137.0          31.82          90.88          56.43          7.502
    0.2352              -49.57          36.52          37.68          67.27         -2.111          4.911          137.0          31.81          90.88          56.45          7.529
    0.2822              -49.57          36.51          37.69          67.27         -2.112          4.907          137.0          31.81          90.88          56.46          7.558
    0.3292              -49.57          36.51          37.69          67.27         -2.114          4.902          137.0           31.8          90.87          56.47           7.59
    0.3762              -49.56           36.5           37.7          67.27         -2.116          4.897          136.9          31.79          90.87          56.49          7.623
    0.4233              -49.56           36.5           37.7          67.27         -2.118          4.891          136.9          31.78          90.87           56.5          7.659
    0.4703              -49.55          36.49          37.71          67.27          -2.12          4.885          136.9          31.77          90.86          56.52          7.698
    0.5173              -49.55          36.49          37.71          67.27         -2.122          4.879          136.9          31.76          90.86          56.54           7.74
    0.5644              -49.54          36.48          37.72          67.27         -2.125          4.872          136.9          31.75          90.85          56.56          7.785
    0.6114              -49.53          36.48          37.73          67.27         -2.127          4.865          136.9          31.74          90.85          56.58          7.833
    0.6584              -49.53          36.47          37.73          67.27          -2.13          4.857          136.8          31.73          90.85           56.6          7.885
    0.7055              -49.52          36.46          37.74          67.27         -2.133          4.849          136.8          31.71          90.84          56.62          7.942
    0.7525              -49.51          36.45          37.75          67.27         -2.137          4.839          136.8           31.7          90.83          56.65          8.004
    0.7995               -49.5          36.44          37.76          67.27          -2.14          4.829          136.8          31.68          90.83          56.68          8.072
    0.8465              -49.49          36.43          37.77          67.27         -2.144          4.818          136.7          31.66          90.82          56.71          8.145
    0.8936              -49.48          36.42          37.78          67.27         -2.149          4.806          136.7          31.64          90.81          56.74          8.226
    0.9406              -49.47          36.41           37.8          67.27         -2.154          4.793          136.7          31.62          90.81          56.78          8.314
